<svg xmlns="http://www.w3.org/2000/svg" width="520" height="360" viewBox="0 0 520 360" fill="none" aria-hidden="true">
  <defs>
    <linearGradient id="authBg" x1="0" y1="0" x2="520" y2="360" gradientUnits="userSpaceOnUse">
      <stop stop-color="#0f766e" stop-opacity="0.12"/>
      <stop offset="0.45" stop-color="#f0fdfa" stop-opacity="0.9"/>
      <stop offset="1" stop-color="#134e4a" stop-opacity="0.08"/>
    </linearGradient>
    <linearGradient id="authCard" x1="120" y1="80" x2="400" y2="280" gradientUnits="userSpaceOnUse">
      <stop stop-color="#ffffff"/>
      <stop offset="1" stop-color="#f8faf9"/>
    </linearGradient>
    <filter id="authShadow" x="-20%" y="-20%" width="140%" height="140%">
      <feDropShadow dx="0" dy="12" stdDeviation="24" flood-opacity="0.12"/>
    </filter>
  </defs>
  <rect width="520" height="360" rx="24" fill="url(#authBg)"/>
  <rect x="100" y="70" width="320" height="220" rx="20" fill="url(#authCard)" stroke="#0f766e" stroke-opacity="0.18" stroke-width="1.5" filter="url(#authShadow)"/>
  <path d="M260 118c-18 0-32 14-32 32v18h-14v52h92v-52h-14v-18c0-18-14-32-32-32zm0 12c11 0 20 9 20 20v18h-40v-18c0-11 9-20 20-20z" fill="#0f766e" fill-opacity="0.92"/>
  <rect x="178" y="218" width="164" height="10" rx="5" fill="#0f766e" fill-opacity="0.2"/>
  <rect x="198" y="236" width="124" height="8" rx="4" fill="#0f766e" fill-opacity="0.12"/>
  <circle cx="420" cy="100" r="36" fill="#0d9488" fill-opacity="0.15"/>
  <circle cx="96" cy="248" r="28" fill="#14b8a6" fill-opacity="0.2"/>
  <path d="M152 130h48v6h-48v-6zm0 18h72v6h-72v-6z" fill="#0f766e" fill-opacity="0.25"/>
</svg>
