<svg xmlns="http://www.w3.org/2000/svg" viewBox="0 0 560 380" fill="none" role="img" aria-labelledby="ht">
  <title id="ht">Stylized dashboard with short link and click chart</title>
  <defs>
    <linearGradient id="b" x1="0" y1="0" x2="1" y2="1">
      <stop offset="0%" stop-color="#0f766e"/>
      <stop offset="100%" stop-color="#115e59"/>
    </linearGradient>
    <filter id="s" x="-5%" y="-5%" width="110%" height="110%">
      <feDropShadow dx="0" dy="12" stdDeviation="24" flood-color="#000000" flood-opacity="0.12"/>
    </filter>
  </defs>
  <rect x="24" y="24" width="512" height="332" rx="16" fill="#ffffff" stroke="#e2e2de" stroke-width="2" filter="url(#s)"/>
  <rect x="24" y="24" width="512" height="40" rx="16" fill="#f4f4f0"/>
  <circle cx="48" cy="44" r="6" fill="#ef4444"/>
  <circle cx="68" cy="44" r="6" fill="#f59e0b"/>
  <circle cx="88" cy="44" r="6" fill="#22c55e"/>
  <rect x="48" y="88" width="320" height="28" rx="8" fill="url(#b)" opacity="0.95"/>
  <text x="56" y="108" fill="#f0fdfa" font-family="ui-monospace,Courier,monospace" font-size="13" font-weight="600">fin.sh/s/demo</text>
  <rect x="400" y="92" width="112" height="20" rx="6" fill="#d4d4d8"/>
  <rect x="48" y="144" width="464" height="120" rx="12" fill="#fafafa" stroke="#e2e2de"/>
  <rect x="72" y="220" width="36" height="28" rx="4" fill="#0f766e" opacity="0.85"/>
  <rect x="124" y="200" width="36" height="48" rx="4" fill="#0f766e" opacity="0.55"/>
  <rect x="176" y="176" width="36" height="72" rx="4" fill="#0f766e" opacity="0.7"/>
  <rect x="228" y="208" width="36" height="40" rx="4" fill="#0f766e" opacity="0.45"/>
  <rect x="280" y="188" width="36" height="60" rx="4" fill="#14b8a6" opacity="0.85"/>
  <path d="M72 168h416" stroke="#e2e2de" stroke-width="1"/>
  <text x="72" y="162" fill="#525252" font-family="system-ui,sans-serif" font-size="11" font-weight="600">Clicks (7d)</text>
  <rect x="48" y="284" width="200" height="44" rx="10" fill="#0a0a0a" opacity="0.06"/>
  <text x="64" y="312" fill="#404040" font-family="ui-monospace,Courier,monospace" font-size="12">⌘K Search links…</text>
</svg>
